<svg id="rcl__cloud" xmlns="http://www.w3.org/2000/svg" viewBox="0 0 450 150">
  <defs>
    <style>
      .cls-1 {fill-opacity: 0.3;}

      .cls-1, .cls-2 {
        fill-rule: evenodd;
        fill: #fff;
      }
    </style>
  </defs>
  <title>cloud__v3</title>
  <path id="cloud--back" class="cls-1" d="M0,150V28.22a27.37,27.37,0,0,1,8.33-1.51A28.5,28.5,0,0,1,32.72,40.6a36.16,36.16,0,0,1,67,6.05,30.31,30.31,0,0,1,26.13-15.1,30.66,30.66,0,0,1,30.28,27.88,17.71,17.71,0,0,1,27.31,3.87,19.14,19.14,0,0,1,18.19-13.52,18.7,18.7,0,0,1,8,1.77,30.47,30.47,0,0,1,28.46-20,30,30,0,0,1,20.19,7.81,21.81,21.81,0,0,1,15.62-6.59,22.17,22.17,0,0,1,21.39,16.88,15.86,15.86,0,0,1,17.64-.06,26.1,26.1,0,0,1,48.74-2.38A16.19,16.19,0,0,1,377,35.92h0.13C381.28,20.88,396.57,6,414.76,6,430.37,6,445,14.69,450,28.22V150H0Z"/>
  <path id="cloud--front" class="cls-2" d="M450,150H0V28.22C5,14.69,19.63,6,35.24,6,53.43,6,68.72,20.88,72.91,35.92H73a16.19,16.19,0,0,1,15.3,11.3,26.1,26.1,0,0,1,48.74,2.38,15.86,15.86,0,0,1,17.64.06A22.17,22.17,0,0,1,176.1,32.78a21.81,21.81,0,0,1,15.62,6.59,30,30,0,0,1,20.19-7.81,30.47,30.47,0,0,1,28.46,20,18.7,18.7,0,0,1,8-1.77A19.14,19.14,0,0,1,266.5,63.31a17.71,17.71,0,0,1,27.31-3.87A30.66,30.66,0,0,1,324.1,31.56a30.31,30.31,0,0,1,26.13,15.1,36.16,36.16,0,0,1,67-6.05,28.5,28.5,0,0,1,24.39-13.89A27.37,27.37,0,0,1,450,28.22V150h0Z"/>
</svg>
